<svg width="22" height="20" viewBox="0 0 22 20" fill="none" xmlns="http://www.w3.org/2000/svg">
<g id="Group">
<path id="Vector" d="M5.22366 9.47368C4.60161 9.47368 3.98565 9.35116 3.41095 9.11311C2.83625 8.87507 2.31406 8.52615 1.87421 8.0863C1.43435 7.64644 1.08544 7.12425 0.847387 6.54955C0.609338 5.97485 0.486816 5.35889 0.486816 4.73684C0.486816 4.11479 0.609338 3.49883 0.847387 2.92413C1.08544 2.34943 1.43435 1.82725 1.87421 1.38739C2.31406 0.947532 2.83625 0.598619 3.41095 0.360571C3.98565 0.122522 4.60161 -9.26928e-09 5.22366 0C6.47995 1.87202e-08 7.68478 0.499059 8.57311 1.38739C9.46144 2.27572 9.9605 3.48055 9.9605 4.73684C9.9605 5.99313 9.46144 7.19797 8.57311 8.0863C7.68478 8.97463 6.47995 9.47368 5.22366 9.47368ZM5.74997 20C4.49369 20 3.28885 19.5009 2.40052 18.6126C1.51219 17.7243 1.01313 16.5194 1.01313 15.2632C1.01313 14.0069 1.51219 12.802 2.40052 11.9137C3.28885 11.0254 4.49369 10.5263 5.74997 10.5263C7.00626 10.5263 8.2111 11.0254 9.09943 11.9137C9.98776 12.802 10.4868 14.0069 10.4868 15.2632C10.4868 16.5194 9.98776 17.7243 9.09943 18.6126C8.2111 19.5009 7.00626 20 5.74997 20ZM16.2763 9.47368C15.6542 9.47368 15.0383 9.35116 14.4636 9.11311C13.8889 8.87507 13.3667 8.52615 12.9268 8.0863C12.487 7.64644 12.1381 7.12425 11.9 6.54955C11.662 5.97485 11.5394 5.35889 11.5394 4.73684C11.5394 4.11479 11.662 3.49883 11.9 2.92413C12.1381 2.34943 12.487 1.82725 12.9268 1.38739C13.3667 0.947532 13.8889 0.598619 14.4636 0.360571C15.0383 0.122522 15.6542 -9.26928e-09 16.2763 0C17.5326 1.87202e-08 18.7374 0.499059 19.6257 1.38739C20.5141 2.27572 21.0131 3.48055 21.0131 4.73684C21.0131 5.99313 20.5141 7.19797 19.6257 8.0863C18.7374 8.97463 17.5326 9.47368 16.2763 9.47368ZM16.2763 20C15.02 20 13.8152 19.5009 12.9268 18.6126C12.0385 17.7243 11.5394 16.5194 11.5394 15.2632C11.5394 14.0069 12.0385 12.802 12.9268 11.9137C13.8152 11.0254 15.02 10.5263 16.2763 10.5263C17.5326 10.5263 18.7374 11.0254 19.6257 11.9137C20.5141 12.802 21.0131 14.0069 21.0131 15.2632C21.0131 16.5194 20.5141 17.7243 19.6257 18.6126C18.7374 19.5009 17.5326 20 16.2763 20ZM5.22366 7.36842C5.9216 7.36842 6.59095 7.09117 7.08447 6.59765C7.57798 6.10413 7.85524 5.43478 7.85524 4.73684C7.85524 4.0389 7.57798 3.36955 7.08447 2.87603C6.59095 2.38252 5.9216 2.10526 5.22366 2.10526C4.52572 2.10526 3.85637 2.38252 3.36285 2.87603C2.86933 3.36955 2.59208 4.0389 2.59208 4.73684C2.59208 5.43478 2.86933 6.10413 3.36285 6.59765C3.85637 7.09117 4.52572 7.36842 5.22366 7.36842ZM5.74997 17.8947C6.44791 17.8947 7.11727 17.6175 7.61078 17.124C8.1043 16.6304 8.38155 15.9611 8.38155 15.2632C8.38155 14.5652 8.1043 13.8959 7.61078 13.4024C7.11727 12.9088 6.44791 12.6316 5.74997 12.6316C5.05204 12.6316 4.38268 12.9088 3.88917 13.4024C3.39565 13.8959 3.1184 14.5652 3.1184 15.2632C3.1184 15.9611 3.39565 16.6304 3.88917 17.124C4.38268 17.6175 5.05204 17.8947 5.74997 17.8947ZM16.2763 7.36842C16.9742 7.36842 17.6436 7.09117 18.1371 6.59765C18.6306 6.10413 18.9079 5.43478 18.9079 4.73684C18.9079 4.0389 18.6306 3.36955 18.1371 2.87603C17.6436 2.38252 16.9742 2.10526 16.2763 2.10526C15.5784 2.10526 14.909 2.38252 14.4155 2.87603C13.922 3.36955 13.6447 4.0389 13.6447 4.73684C13.6447 5.43478 13.922 6.10413 14.4155 6.59765C14.909 7.09117 15.5784 7.36842 16.2763 7.36842ZM16.2763 17.8947C16.9742 17.8947 17.6436 17.6175 18.1371 17.124C18.6306 16.6304 18.9079 15.9611 18.9079 15.2632C18.9079 14.5652 18.6306 13.8959 18.1371 13.4024C17.6436 12.9088 16.9742 12.6316 16.2763 12.6316C15.5784 12.6316 14.909 12.9088 14.4155 13.4024C13.922 13.8959 13.6447 14.5652 13.6447 15.2632C13.6447 15.9611 13.922 16.6304 14.4155 17.124C14.909 17.6175 15.5784 17.8947 16.2763 17.8947Z" fill="white"/>
</g>
</svg>
