<svg xmlns="http://www.w3.org/2000/svg" height="100" width="150" xml:space="preserve" y="0" x="0" id="Ebene_1" version="1.1" viewBox="-120.0039 -63.15 1040.0338 378.9"><style id="style146" type="text/css">.st0{fill:#40ad55}</style><g transform="translate(-49.974 -23.7)" id="XMLID_526_"><path d="M214.5 194.1H262v41.7H119.3L296.7 58.3c5.8-5.8 7.5-14.5 4.4-22.1-3.1-7.6-10.5-12.5-18.8-12.5h-212C59.1 23.7 50 32.8 50 44v150.1l88.1-88.1H90.6V64.3h142.7L55.9 241.7c-5.8 5.8-7.5 14.5-4.4 22.1 3.1 7.6 10.5 12.5 18.8 12.5h212c11.2 0 20.3-9.1 20.3-20.3V105.9z" class="st0" id="XMLID_537_"/><g id="XMLID_527_"><path d="M426.6 75.8c24.7 0 40.7 9.6 48.5 15.7 4.9 3.2 5.2 8.1 1.7 13.1l-2.9 4.4c-3.5 5.2-7.6 5.5-13.1 2.3-6.1-4.4-17.4-11-32.8-11-29.6 0-51.1 22.1-51.1 52.3 0 29.9 21.5 52.9 51.7 52.9 17.7 0 30.5-8.1 37.5-13.4 5.2-3.5 9.6-2.9 13.1 2.6l2.3 4.4c2.9 4.9 2 9.6-2.6 12.8-8.1 6.7-25.9 18-52.3 18-46.2 0-78.4-32.8-78.4-77 0-43.7 32.5-77.1 78.4-77.1z" class="st0" id="XMLID_535_"/><path d="M563.5 75.8c43.9 0 79.3 32.3 79.3 76.7 0 44.7-35.4 77.3-79.3 77.3s-79-32.5-79-77.3c0-44.5 35.2-76.7 79-76.7zm0 129.5c27.9 0 50.6-22.1 50.6-52.9 0-30.5-22.7-52.3-50.6-52.3-27.6 0-50.6 21.8-50.6 52.3.1 30.9 23 52.9 50.6 52.9z" class="st0" id="XMLID_532_"/><path d="M661.4 88.8c0-6.4 3.5-9.6 9.6-9.6h9c6.4 0 9.6 3.2 9.6 9.6v127.8c0 6.4-3.2 9.6-9.6 9.6h-9c-6.1 0-9.6-3.2-9.6-9.6z" class="st0" id="XMLID_530_"/><path d="M716.9 88.8c0-6.4 3.5-9.6 9.6-9.6h8.1c6.4 0 9.6 3.2 9.6 9.6v13.1c0 4.4-.9 8.4-.9 8.4h.6c5.8-12.8 23.5-34.6 55.8-34.6 34.6 0 50.3 18.9 50.3 56.4v84.6c0 6.4-3.2 9.6-9.6 9.6h-9c-6.1 0-9.6-3.2-9.6-9.6v-78.2c0-20.6-4.1-36.9-27.6-36.9-28.5 0-49.1 23.8-49.1 54.3v60.7c0 6.4-3.2 9.6-9.6 9.6h-9c-6.1 0-9.6-3.2-9.6-9.6z" class="st0" id="XMLID_528_"/></g></g></svg>