<?xml version="1.0" standalone="no"?>
<!DOCTYPE svg PUBLIC "-//W3C//DTD SVG 20010904//EN"
 "http://www.w3.org/TR/2001/REC-SVG-20010904/DTD/svg10.dtd">
<svg version="1.0" xmlns="http://www.w3.org/2000/svg"
 width="240.000000pt" height="240.000000pt" viewBox="0 0 240.000000 240.000000"
 preserveAspectRatio="xMidYMid meet">
<metadata>
Created by potrace 1.14, written by Peter Selinger 2001-2017
</metadata>
<g transform="translate(0.000000,240.000000) scale(0.100000,-0.100000)"
fill="#000000" stroke="none">
<path d="M1080 2395 c-8 -2 -49 -9 -90 -15 -160 -26 -361 -111 -493 -208 -241
-176 -409 -438 -473 -732 -26 -118 -26 -362 0 -480 104 -482 475 -845 961
-941 103 -21 349 -18 455 5 481 104 845 475 941 961 21 103 18 349 -5 455
-100 466 -454 826 -916 931 -78 18 -338 35 -380 24z m829 -433 c65 -35 89
-118 51 -180 -41 -67 -116 -89 -178 -52 -63 39 -88 111 -58 168 40 76 114 102
185 64z m-606 -177 c76 -13 227 -75 227 -92 0 -5 -22 -30 -49 -57 l-49 -48
-63 25 c-261 104 -545 -46 -609 -322 -18 -75 -8 -184 24 -262 l26 -64 -54 -54
-54 -53 -36 73 c-71 145 -82 296 -33 451 68 215 265 380 487 408 83 11 98 11
183 -5z m435 -330 c34 -66 62 -188 62 -262 -1 -247 -172 -482 -410 -563 -88
-30 -232 -37 -323 -16 -54 13 -176 64 -196 82 -3 3 19 29 48 58 l53 54 57 -27
c50 -23 68 -26 172 -26 113 0 117 1 190 37 86 42 162 113 202 186 69 128 74
291 13 411 l-18 34 53 53 c29 30 56 51 60 46 4 -4 21 -34 37 -67z m-1120 -785
c40 -25 72 -75 72 -115 0 -40 -32 -90 -72 -115 -91 -55 -206 20 -195 128 5 46
24 74 72 103 39 24 82 24 123 -1z"/>
</g>
</svg>
